<svg width="30" height="30" viewBox="0 0 30 30" fill="none" xmlns="http://www.w3.org/2000/svg">
<path d="M3.44652 0.0212225L26.3964 0C28.3447 0.144312 29.8514 1.65959 30 3.60357V26.3964C29.8557 28.3447 28.3404 29.8514 26.3964 30H3.60356C1.65535 29.8557 0.148557 28.3404 0 26.3964V3.55263C0.174024 1.70628 1.58744 0.212224 3.44652 0.0254671V0.0212225ZM28.2385 16.3497V3.66723C28.2385 2.7292 27.1477 1.75297 26.2182 1.7657H3.89643C2.92445 1.70204 1.76146 2.68676 1.76146 3.66723V20.5688C1.91002 20.5306 2.07555 20.3735 2.19864 20.2759C3.59083 19.1426 4.97453 17.7292 6.39219 16.6808C7.65705 15.7428 8.59932 16.0017 9.75382 16.8803C10.6536 17.5679 11.4856 18.3616 12.3642 19.0789L12.4958 19.1002L20.6791 10.9338C21.9143 10.0085 23.1409 10.2504 24.1341 11.3455C25.4881 12.8353 26.6596 14.6435 28.0051 16.146C28.073 16.2182 28.1452 16.3158 28.2385 16.354V16.3497ZM22.0713 12.1435C21.719 12.2241 21.3879 12.7462 21.1503 12.9839C18.5102 15.6367 15.8489 18.2683 13.2131 20.9211C12.9032 21.2267 12.4278 21.3328 12.0501 21.0866L8.37436 18.0263C8.18336 17.899 8.00934 17.8353 7.77589 17.8862L1.78693 22.9117C1.86333 24.8727 1.01019 28.0008 3.83277 28.247H26.1587C27.3175 28.1791 28.1367 27.3812 28.2343 26.2224L28.2216 19.2063L22.6358 12.3175C22.4788 12.1774 22.2793 12.101 22.0671 12.1477L22.0713 12.1435Z" fill="#00A7A5"/>
<path d="M9.0113 3.71393C12.4026 3.39983 14.788 6.92276 13.2049 9.95756C11.6386 12.9584 7.24136 12.9457 5.67514 9.94483C4.29144 7.29203 6.03168 3.98982 9.0113 3.71393ZM9.30842 5.47114C6.29908 5.60697 6.18448 10.1358 9.1726 10.4329C12.704 10.7852 12.8398 5.30985 9.30842 5.47114Z" fill="#00A7A5"/>
</svg>
