<svg width="26" height="30" viewBox="0 0 26 30" fill="none" xmlns="http://www.w3.org/2000/svg">
<path d="M1.97963 0.213867H17.5446L24.8898 7.53809L24.986 7.87291V27.7906C24.8814 28.8285 24.082 29.6614 23.0441 29.7953H2.20982C1.1635 29.7284 0.297154 28.8285 0.205078 27.7906V2.19768C0.297154 1.20996 1.02121 0.427316 1.97963 0.213867ZM16.9127 1.05929H2.20982C2.17215 1.05929 1.80385 1.2267 1.73689 1.26437C1.2514 1.55734 1.10491 2.02609 1.06724 2.56599V27.4181C1.09654 28.2301 1.54855 28.8537 2.39397 28.929H22.8013C23.3245 28.8913 23.8393 28.5481 24.0151 28.0459C24.036 27.9831 24.1239 27.6357 24.1239 27.6023V8.27469H18.7919C18.1097 8.27469 16.9127 7.15723 16.9127 6.4541V1.05929ZM23.3831 7.34975L17.7748 1.74149V6.14858C17.7748 6.55036 18.3733 7.34975 18.7919 7.34975H23.3831Z" fill="#00A7A5"/>
<path d="M2.20982 30C1.06306 29.9247 0.100446 28.9621 0 27.8027V2.19727C0.0962612 1.11747 0.878907 0.242746 1.93778 0.00837073H1.98382L17.6367 0L25.0823 7.42467L25.2037 7.8683V27.786C25.0907 28.9537 24.216 29.8535 23.0776 29.9958H2.20982V30ZM2.00474 0.422712C1.13421 0.62779 0.493862 1.34347 0.414341 2.21819V27.7902C0.498047 28.7277 1.28906 29.5229 2.22238 29.5857H23.0483C23.9648 29.4685 24.6889 28.7193 24.781 27.7693V7.90179L24.7056 7.65067L17.4609 0.422712H2.00474ZM2.39397 29.1378C1.47321 29.0541 0.891463 28.4012 0.85798 27.4261V2.56557C0.895648 2.06334 1.01702 1.45647 1.63225 1.08398C1.63644 1.08398 2.08845 0.845424 2.20982 0.845424H17.1219V6.4495C17.1219 7.02288 18.1975 8.06083 18.7919 8.06083H24.3331V27.5977C24.3331 27.6814 24.2243 28.0748 24.2118 28.1124C24.0151 28.6691 23.4417 29.0876 22.8181 29.1337H2.39397V29.1378ZM2.23912 1.26814C2.15541 1.29743 1.89593 1.41881 1.8457 1.44392C1.48996 1.65737 1.31836 2.00056 1.27651 2.58231V27.4177C1.30162 28.1669 1.72852 28.6565 2.41071 28.7193H22.8013C23.2492 28.6858 23.6761 28.3803 23.8184 27.9743C23.8351 27.9283 23.9104 27.6311 23.9188 27.5767V8.47935H18.796C17.9757 8.47935 16.7076 7.24888 16.7076 6.4495V1.26395H2.23912V1.26814ZM23.8895 7.5586H18.7919C18.2268 7.5586 17.5656 6.62528 17.5656 6.14816V1.23465L23.8895 7.5586ZM17.9841 2.2433V6.14816C17.9841 6.47461 18.5282 7.14007 18.7919 7.14007H22.8809L17.9841 2.2433Z" fill="#00A7A5"/>
<path d="M3.54498 19.4318L21.3533 19.415C22.3243 19.4904 22.3703 20.2688 21.4454 20.3442H3.61613C2.73304 20.2939 2.68282 19.5448 3.54498 19.4318Z" fill="#00A7A5"/>
<path d="M3.61611 20.5498C3.00506 20.5163 2.72883 20.2024 2.71627 19.9053C2.7079 19.6207 2.95065 19.2942 3.51984 19.2189H3.54914L21.3575 19.2021C22.0313 19.2524 22.3243 19.5872 22.3243 19.9011C22.3243 20.1689 22.0983 20.4996 21.4663 20.5498H3.61611ZM3.5617 19.6374C3.2478 19.6835 3.1348 19.8132 3.1348 19.8885C3.1348 19.9764 3.29384 20.1104 3.62866 20.1313H21.4495C21.7592 20.1062 21.9057 19.9806 21.9057 19.9011C21.9057 19.8048 21.7258 19.65 21.3407 19.6207L3.5617 19.6374Z" fill="#00A7A5"/>
<path d="M3.35672 25.9364L21.4496 25.9238C22.2825 25.9364 22.3369 26.7232 21.5459 26.7902H3.51994C2.81682 26.6897 2.72055 26.1666 3.35672 25.9364Z" fill="#00A7A5"/>
<path d="M3.51984 26.9987C2.9632 26.9234 2.74975 26.6472 2.72464 26.4086C2.69534 26.124 2.9046 25.8729 3.28546 25.739L3.35661 25.7264L21.4495 25.7139C22.0313 25.7222 22.3075 26.0487 22.3159 26.3458C22.3242 26.6304 22.0941 26.9527 21.5625 26.9987H3.51984ZM3.39428 26.1449C3.20176 26.2203 3.13479 26.3207 3.13898 26.3668C3.14316 26.4296 3.26035 26.5426 3.54495 26.5802H21.5416C21.7718 26.5593 21.8974 26.4505 21.8932 26.3584C21.8932 26.2496 21.7299 26.1324 21.4412 26.1282L3.3901 26.1408L3.39428 26.1449Z" fill="#00A7A5"/>
<path d="M3.35679 22.7003L21.546 22.6836C22.337 22.7506 22.2826 23.5416 21.4497 23.5499H3.61628C2.82944 23.4914 2.67877 22.9556 3.35679 22.6961V22.7003Z" fill="#00A7A5"/>
<path d="M3.61622 23.7598C3.00517 23.7137 2.75824 23.4375 2.72475 23.1906C2.6829 22.9102 2.89216 22.6507 3.28558 22.5L3.36091 22.4874L21.5501 22.4707C22.0984 22.5167 22.3327 22.8432 22.3202 23.1236C22.3076 23.4249 22.0356 23.7472 21.4538 23.7556H3.61622V23.7598ZM3.39858 22.9102C3.19769 22.9939 3.13072 23.0901 3.13909 23.1362C3.14747 23.1948 3.27721 23.3203 3.63296 23.3454H21.4496C21.7342 23.3412 21.8933 23.2241 21.8975 23.1152C21.8975 23.019 21.7761 22.9143 21.525 22.8934L3.3944 22.9102H3.39858Z" fill="#00A7A5"/>
<path d="M3.54498 9.7101L21.3533 9.69336C22.3243 9.76869 22.3703 10.5472 21.4454 10.6225H3.61613C2.73304 10.5723 2.68282 9.8231 3.54498 9.7101Z" fill="#00A7A5"/>
<path d="M3.61611 10.8311C3.00506 10.7976 2.72883 10.4837 2.71627 10.1865C2.7079 9.89774 2.95065 9.57547 3.51984 9.50014H3.54914L21.3575 9.4834C22.0313 9.53362 22.3243 9.86844 22.3243 10.1823C22.3243 10.4502 22.0983 10.7808 21.4663 10.8311H3.61611ZM3.5617 9.91867C3.2478 9.9647 3.1348 10.0944 3.1348 10.1698C3.1348 10.2577 3.29384 10.3916 3.62866 10.4125H21.4495C21.7592 10.3874 21.9057 10.2619 21.9057 10.1823C21.9057 10.0861 21.7258 9.93122 21.3407 9.90193L3.5617 9.91867Z" fill="#00A7A5"/>
<path d="M3.35672 16.2176L21.4496 16.2051C22.2825 16.2176 22.3369 17.0045 21.5459 17.0714H3.51994C2.81682 16.971 2.72055 16.4478 3.35672 16.2176Z" fill="#00A7A5"/>
<path d="M3.51984 17.281C2.9632 17.2056 2.74975 16.9294 2.72464 16.6908C2.69534 16.4062 2.9046 16.1551 3.28546 16.0212L3.35661 16.0086L21.4495 15.9961C22.0313 16.0045 22.3075 16.3309 22.3159 16.6281C22.3242 16.9127 22.0941 17.2349 21.5625 17.281H3.51984ZM3.39428 16.4272C3.20176 16.5025 3.13479 16.603 3.13898 16.649C3.14316 16.7118 3.26035 16.8248 3.54495 16.8624H21.5416C21.7718 16.8415 21.8974 16.7327 21.8932 16.6406C21.8932 16.5318 21.7299 16.4146 21.4412 16.4104L3.3901 16.423L3.39428 16.4272Z" fill="#00A7A5"/>
<path d="M3.35679 12.9826L21.546 12.9658C22.337 13.0328 22.2826 13.8238 21.4497 13.8322H3.61628C2.82944 13.7736 2.67877 13.2379 3.35679 12.9784V12.9826Z" fill="#00A7A5"/>
<path d="M3.61622 14.042C3.00517 13.996 2.75824 13.7197 2.72475 13.4728C2.6829 13.1924 2.89216 12.9329 3.28558 12.7822L3.36091 12.7697L21.5501 12.7529C22.0984 12.799 22.3327 13.1254 22.3202 13.4058C22.3076 13.7072 22.0356 14.0294 21.4538 14.0378H3.61622V14.042ZM3.39858 13.1924C3.19769 13.2761 3.13072 13.3723 3.13909 13.4184C3.14747 13.4728 3.27721 13.6025 3.63296 13.6277H21.4496C21.7342 13.6235 21.8933 13.5063 21.8975 13.3975C21.8975 13.3054 21.7761 13.1966 21.525 13.1756L3.3944 13.1924H3.39858Z" fill="#00A7A5"/>
</svg>
