<svg width="30" height="30" viewBox="0 0 30 30" fill="none" xmlns="http://www.w3.org/2000/svg">
<path d="M15 30C6.7275 30 0 23.2725 0 15C0 6.7275 6.7275 0 15 0C23.2725 0 30 6.7275 30 15C30 23.2725 23.2725 30 15 30ZM15 1.5747C7.59762 1.5747 1.5747 7.59762 1.5747 15C1.5747 22.4024 7.59762 28.4253 15 28.4253C22.4024 28.4253 28.4253 22.4024 28.4253 15C28.4253 7.59762 22.4024 1.5747 15 1.5747Z" fill="#00A7A5"/>
<path d="M12.967 17.5047C12.95 17.076 12.9797 16.6558 13.0561 16.2526C13.1325 15.8494 13.2768 15.4376 13.489 15.0259C13.7013 14.6142 14.0281 14.1728 14.4568 13.6974C14.7539 13.3621 14.9831 13.0565 15.1486 12.7764C15.3142 12.4962 15.4245 12.2373 15.484 11.9954C15.5434 11.7534 15.5731 11.4988 15.5731 11.2356V10.6711C15.5731 10.4758 15.5476 10.3018 15.4967 10.1533C15.4458 10.0047 15.3609 9.89011 15.2463 9.80946C15.1317 9.72882 14.9789 9.68637 14.8006 9.68637C14.6223 9.68637 14.4823 9.73306 14.3549 9.82644C14.2276 9.91982 14.1342 10.0599 14.0748 10.2424C14.0154 10.4249 13.9814 10.6414 13.9814 10.8918L13.9559 12.0039H10.2293L10.2166 10.9725C10.242 10.0726 10.4415 9.2789 10.8193 8.58281C11.197 7.88671 11.7488 7.34342 12.4704 6.95293C13.1919 6.56243 14.0493 6.36719 15.0425 6.36719C16.0357 6.36719 16.8507 6.5497 17.5638 6.91897C18.2768 7.28824 18.8244 7.78909 19.2106 8.42576C19.5969 9.06243 19.7921 9.80097 19.7921 10.6371V10.9088C19.7921 11.4309 19.7242 11.9105 19.5884 12.3434C19.4525 12.7764 19.2488 13.1966 18.9772 13.5955C18.7055 13.9945 18.3702 14.419 17.9627 14.8562C17.5892 15.2721 17.3006 15.6286 17.1053 15.93C16.9101 16.2314 16.7785 16.5073 16.7064 16.7577C16.6342 17.0081 16.6003 17.2628 16.6003 17.5174V17.823H12.967V17.5047ZM13.3362 23.0098C12.9203 22.5938 12.7081 22.0803 12.7081 21.4606C12.7081 20.8409 12.916 20.3782 13.3362 19.9665C13.7565 19.5548 14.2743 19.3511 14.9025 19.3511C15.5306 19.3511 16.04 19.5548 16.4602 19.9665C16.8804 20.3782 17.0926 20.8748 17.0926 21.4606C17.0926 22.076 16.8804 22.5938 16.4602 23.0098C16.04 23.4258 15.5179 23.6295 14.9025 23.6295C14.287 23.6295 13.7565 23.4215 13.3362 23.0098Z" fill="#00A7A5"/>
</svg>
