<svg width="78" height="78" viewBox="0 0 78 78" fill="none" xmlns="http://www.w3.org/2000/svg">
<path d="M1.04009 24.7653L7.78115 20.3754L7.8039 1.22679C7.8169 0.706893 8.13543 0.271475 8.60997 0.0830112L68.8375 0.00177659C69.585 -0.0339666 70.1798 0.472937 70.2156 1.22355L70.2383 20.3722C72.6761 22.546 77.2297 23.4233 78 26.9099L77.8992 75.0366C77.4669 76.6353 76.0336 77.87 74.3629 78L2.96425 77.8798C1.36511 77.4476 0.130011 76.0146 0 74.3444V27.2186C0.0812568 26.3023 0.451788 25.4542 1.04009 24.7653ZM53.2232 41.5971L57.3738 39.0041L61.5081 36.3949L67.6121 32.8303V2.61103H10.4074V32.8303L16.5114 36.3949L20.6457 39.0041L24.7963 41.5971L29.0964 44.2032L37.9014 49.6166C38.5027 49.7693 39.2535 49.7953 39.8646 49.6881C41.0444 49.4867 46.8754 45.6719 48.2568 44.7555L53.2199 41.5939L53.2232 41.5971ZM7.80715 31.0431V23.5696L3.013 26.494C2.67172 26.7897 2.54496 27.2739 2.59047 27.7125C2.62947 28.083 7.1636 30.6305 7.80715 31.0431ZM70.2123 23.5696V31.0431C70.8689 30.6662 75.3933 28.0797 75.429 27.7125C75.4745 27.2739 75.3478 26.7865 75.0065 26.494L70.2123 23.5696ZM75.4128 31.0431L41.2102 52.0082C39.4518 52.5768 37.4301 52.4826 35.8147 51.5435L2.60672 31.0431V74.5037C2.60672 74.8773 3.53629 75.5532 3.98158 75.4037H74.0412C74.4832 75.55 75.416 74.8741 75.416 74.5037V31.0431H75.4128Z" fill="#00A7A5"/>
<path d="M33 22H27.3082C27.138 22 27 21.8531 27 21.6719V18.3281C27 18.1469 27.138 18 27.3082 18H33V22Z" fill="#00A7A5"/>
<path d="M37.5962 11H33.4038C33.1808 11 33 11.1635 33 11.3653V18H38V11.3653C38 11.1635 37.8192 11 37.5962 11Z" fill="#00A7A5"/>
<path d="M44 21.6719V18.3281C44 18.1469 43.862 18 43.6918 18H38V22H43.6918C43.862 22 44 21.8531 44 21.6719Z" fill="#00A7A5"/>
<path d="M33.4038 28H37.5962C37.8192 28 38 27.8598 38 27.6869V22H33V27.6869C33 27.8598 33.1808 28 33.4038 28Z" fill="#00A7A5"/>
<path d="M55 22.2582C54.8038 31.4682 47.7548 38.6473 38.2647 39H38.2491C38.1121 39 38 38.8866 38 38.7481V34.9854C38 34.8468 38.1121 34.7335 38.2491 34.7335H38.4515C45.6749 34.3808 50.3421 29.4247 50.722 22.2676C50.722 22.2613 50.722 22.2582 50.722 22.2519C50.722 22.1134 50.8341 22 50.9711 22H54.7509C54.8879 22 55 22.1134 55 22.2519V22.2582Z" fill="#00A7A5"/>
</svg>
