<svg width="41" height="28" viewBox="0 0 41 28" fill="none" xmlns="http://www.w3.org/2000/svg">
<path d="M2.06145 0.0248964L38.7195 0C39.9693 0.109546 40.9004 1.12035 41 2.36021V25.4993C40.9004 26.7342 39.9693 27.7549 38.7195 27.8595H2.28054C1.03073 27.7499 0.0995871 26.7391 0 25.4993V2.36519C0.0995871 1.19504 0.911222 0.248967 2.06643 0.0298759L2.06145 0.0248964ZM1.60335 2.52453C1.45397 3.71958 1.71788 5.21338 1.60335 6.44826L1.72286 6.56777H39.2771L39.3966 6.44826V2.52453C39.3966 1.95689 38.7842 1.54858 38.2414 1.59837C26.2312 1.6631 14.2011 1.48385 2.20585 1.688C1.82742 1.77265 1.64319 2.171 1.59837 2.52453H1.60335ZM39.3966 25.3399V11.572L39.2771 11.4525H1.72286L1.60335 11.572V25.3399C1.60335 25.9275 2.13116 26.2711 2.68387 26.2611H38.2464C38.8688 26.281 39.3269 25.9624 39.4016 25.3399H39.3966Z" fill="#00A7A5"/>
<path d="M7.10555 16.4316L22.4818 16.4715C23.1092 16.815 23.1042 17.6068 22.4818 17.9503L7.32464 18.0151C6.40844 17.9055 6.30387 16.7902 7.10555 16.4316Z" fill="#00A7A5"/>
<path d="M16.1529 19.8782C16.6608 20.3513 16.3421 21.2276 15.6599 21.2973H7.32946C6.29375 21.1728 6.3784 19.8085 7.24979 19.689C9.93366 19.8782 12.9412 19.445 15.5852 19.689C15.7695 19.7039 16.0234 19.7537 16.1579 19.8782H16.1529Z" fill="#00A7A5"/>
</svg>
