<svg width="29" height="30" viewBox="0 0 29 30" fill="none" xmlns="http://www.w3.org/2000/svg">
<path d="M11.7427 0.0615345C13.479 0.133703 15.3852 -0.0912937 17.1045 0.0445536C17.928 0.108232 18.7431 0.630395 19.087 1.39029C19.537 2.38792 19.2271 3.91196 20.1398 4.65912C21.77 5.99212 23.4766 3.30064 25.5015 4.61242C25.9133 4.87987 26.1511 5.29166 26.4058 5.69495C27.1317 6.8539 28.0444 8.37369 28.6472 9.58783C29.0548 10.4114 29.1694 11.1416 28.6855 11.9821C27.9723 13.2133 25.7945 13.7099 26.3421 15.5184C26.686 16.6519 28.3331 17.1019 28.8255 18.2948C29.059 18.8594 29.0633 19.5047 28.8255 20.0693C27.9977 21.466 27.2718 22.9391 26.41 24.3103C26.0364 24.9046 25.769 25.3419 25.077 25.6051C23.3747 26.2588 22.1648 24.6159 20.7554 25.0192C19.087 25.4989 19.6516 27.5367 19.0276 28.7253C18.6879 29.3791 17.945 29.8715 17.2148 29.9479C15.4913 29.8588 13.6064 30.0923 11.9041 29.9564C11.089 29.8928 10.2612 29.3621 9.92155 28.6107C9.39938 27.4602 9.8706 25.5626 8.34657 25.0447C6.78008 24.5141 5.36642 26.59 3.50276 25.3886C3.09097 25.1211 2.85324 24.7093 2.59853 24.306C1.87259 23.1471 0.959868 21.6273 0.357046 20.4132C-0.0589868 19.5769 -0.160872 18.8721 0.318839 18.0189C1.01506 16.7835 3.21408 16.308 2.6622 14.4826C2.31834 13.3491 0.671193 12.8991 0.178746 11.7062C-0.0547416 11.1416 -0.0589868 10.4963 0.178746 9.93169C1.00657 8.53501 1.7325 7.06192 2.59428 5.69071C2.96786 5.09638 3.23531 4.65912 3.92728 4.39591C5.62113 3.74639 6.80979 5.35534 8.20223 4.99025C9.92155 4.54025 9.34844 2.47707 9.97673 1.27142C10.3079 0.63464 11.0296 0.142194 11.7427 0.0572892V0.0615345ZM16.9516 2.38792H12.0569C11.8913 3.10112 11.8659 3.878 11.6451 4.57421C11.038 6.48457 9.03429 7.66049 7.06451 7.3421C6.26216 7.2105 5.54896 6.75626 4.7551 6.59494L2.36079 10.7807L2.40749 10.8911C4.08011 12.067 5.38764 13.4552 5.03104 15.6712C4.75935 17.3736 3.59615 18.1802 2.35655 19.1905L4.75086 23.4145C5.70603 23.1938 6.57206 22.6377 7.57818 22.5995C9.4291 22.5315 11.1781 23.7966 11.6833 25.5669C11.8744 26.2376 11.8786 26.9593 12.0866 27.6301L16.9516 27.6216C17.1597 26.59 17.1851 25.5626 17.7285 24.6287C18.4714 23.3551 19.9997 22.5273 21.4855 22.6037C22.4662 22.6546 23.3195 23.2065 24.2577 23.4145L26.652 19.2287L26.6053 19.1184C25.1407 18.0613 23.8671 16.8811 23.9096 14.9113C23.952 12.9416 25.2468 11.9185 26.652 10.8189L24.2577 6.59494C23.2813 6.82843 22.4025 7.38455 21.3752 7.41003C19.9063 7.44823 18.395 6.58221 17.6903 5.30439C17.1851 4.38742 17.1597 3.38979 16.9559 2.38792H16.9516Z" fill="#00A7A5"/>
<path d="M14.1967 9.2355C18.374 8.99352 21.3838 13.226 19.8598 17.1231C18.2381 21.2792 12.6259 22.0646 9.91748 18.5028C7.10289 14.801 9.58635 9.50295 14.1924 9.2355H14.1967ZM14.3155 11.5704C11.5986 11.7062 10.0915 14.9326 11.7896 17.0977C13.1481 18.8255 15.7122 18.8807 17.1301 17.1911C19.0532 14.8986 17.2745 11.4218 14.3113 11.5704H14.3155Z" fill="#00A7A5"/>
</svg>
